<svg xmlns="http://www.w3.org/2000/svg" viewBox="0 0 4801 3599"><path fill="#CD0035" d="M4154 1517c28.278-.244 56.501.456 84.764 1.332 4.603.142 9.205.277 13.808.412 4.498.133 8.996.268 13.494.405l6.347.19c12.21.365 24.397.859 36.587 1.661 12.178 61.508 24.232 123.038 36 184.625l.407 2.13c10.402 54.444 20.637 108.919 30.792 163.41l.64 3.428a7915.92 7915.92 0 0 1 7.313 39.694c.604 3.312 1.202 6.624 1.797 9.937l.785 4.313.674 3.74c.314 2.625.314 2.625 1.592 3.723a1706986.978 1706986.978 0 0 0 34.774-139.041l11.545-46.159c3.977-15.896 7.952-31.792 11.927-47.689 2.22-8.883 4.442-17.766 6.665-26.648a32990.7 32990.7 0 0 0 32.62-131.44c1.479-6.01 2.962-12.02 4.469-18.023 15.843-.128 31.637.269 47.469.84l7.494.262c5.2.182 10.4.366 15.601.552 6.605.237 13.211.469 19.817.7a39745.729 39745.729 0 0 1 22.743.8c3.423.12 6.846.242 10.269.365l2.93.103c6.868.249 13.733.565 20.599.895l2.943.14 7.135.343c-1.28 38.796-2.673 77.587-4.164 116.375-.29 7.534-.577 15.068-.865 22.602l-1.791 46.747a637322.582 637322.582 0 0 0-1.784 46.525l-.101 2.63c-.931 24.289-1.862 48.578-2.795 72.866l-.106 2.757-.53 13.826-.107 2.773-.213 5.55c-1.11 28.91-2.218 57.821-3.325 86.731a681851.074 681851.074 0 0 1-4.15 108.258l-.1 2.591c-.527 13.737-1.052 27.473-1.577 41.21-.526 13.773-1.055 27.545-1.586 41.318-.315 8.174-.628 16.348-.939 24.522-.232 6.102-.468 12.204-.704 18.306-.095 2.468-.19 4.935-.283 7.403a7611.7 7611.7 0 0 1-.388 10.06l-.107 2.9c-.254 6.374-.752 12.703-1.385 19.05-6.675-.577-13.155-1.492-19.717-2.842l-2.768-.557c-2.984-.602-5.966-1.21-8.949-1.82l-6.258-1.266c-4.353-.882-8.706-1.766-13.059-2.653a11764.74 11764.74 0 0 0-16.752-3.4c-4.3-.87-8.598-1.742-12.897-2.615l-6.18-1.253c-2.87-.582-5.74-1.167-8.61-1.752l-2.582-.523c-3.142-.643-6.183-1.304-9.228-2.319 1.366-45.76 2.954-91.51 4.619-137.26a113967.237 113967.237 0 0 0 1.73-47.803l.111-3.095 1.245-34.442.114-3.161c.616-17.016 1.234-34.032 1.853-51.047.64-17.626 1.278-35.252 1.912-52.878.389-10.795.78-21.59 1.175-32.386.27-7.378.536-14.755.8-22.132.152-4.237.305-8.473.462-12.71.667-18.032 1.181-36.037.979-54.086l-.73 2.859a37492.768 37492.768 0 0 1-39.114 151.845l-5.24 20.169A91905.314 91905.314 0 0 1 4417 2186c-3.834 1.382-6.902.675-10.848-.064l-2.061-.379c-2.243-.414-4.483-.841-6.724-1.268a3286.643 3286.643 0 0 1-14.466-2.713c-4.186-.793-8.375-1.577-12.563-2.357-3.218-.6-6.435-1.203-9.651-1.807-1.545-.29-3.09-.58-4.634-.868a514125008.916 514125008.916 0 0 0-10.182-1.923C4343 2174 4343 2174 4341 2173c-.602-1.96-.602-1.96-1.103-4.574l-.58-2.964-.61-3.26c-.218-1.121-.435-2.243-.658-3.4-.693-3.599-1.372-7.2-2.049-10.802l-1.277-6.727a5652.46 5652.46 0 0 1-3.306-17.672c-.743-4.001-1.488-8.002-2.234-12.002l-2.825-15.16a58894.459 58894.459 0 0 0-9.178-49.15l-.454-2.423a28715.768 28715.768 0 0 0-19.735-104.379 31692.034 31692.034 0 0 0-25.241-130.612l-.39-2.002c-1.832-9.378-3.665-18.754-5.5-28.13l-.647-3.306A9742.6 9742.6 0 0 0 4256 1730a1452602.754 1452602.754 0 0 0-3.427 113.295 179609.738 179609.738 0 0 0-5.292 177.145c-.518 17.656-1.034 35.313-1.544 52.97-.195 6.733-.391 13.467-.588 20.2l-.33 11.431c-.487 16.992-1.054 33.977-1.819 50.959-23.082-3.585-46.145-7.297-69.199-11.06-3.084-.503-6.168-1.005-9.253-1.505-3.684-.597-7.368-1.198-11.052-1.802-1.38-.226-2.76-.45-4.14-.673-1.899-.307-3.797-.62-5.695-.932l-3.253-.53C4138 2139 4138 2139 4137 2138c-.052-1.914-.03-3.83.019-5.743l.09-3.821.118-4.268.111-4.512c.104-4.187.215-8.375.327-12.562.096-3.632.189-7.263.28-10.895.314-12.299.64-24.598.967-36.896l.264-9.931c.887-33.517 1.795-67.033 2.709-100.55a385169.615 385169.615 0 0 0 1.087-39.953c.539-19.787 1.077-39.574 1.617-59.36l.06-2.234.49-17.94c.64-23.45 1.277-46.9 1.914-70.349a800594.958 800594.958 0 0 1 2.4-88.185l.057-2.113.853-31.36c.321-11.86.644-23.721.969-35.582.165-6.033.33-12.066.492-18.098 1.255-46.376 1.255-46.376 2.176-66.648Zm376 230 1 4ZM452.574 1567.672 455 1570l2.707 2.516c32.361 30.958 39.979 72.702 41.296 115.619l.247 7.444c.216 6.512.423 13.023.627 19.535.196 6.209.4 12.417.605 18.626a31809.751 31809.751 0 0 1 1.593 50.274 130195.786 130195.786 0 0 1 1.494 48.128l.069 2.235c.37 11.948.746 23.896 1.125 35.844.395 12.465.784 24.93 1.166 37.395.213 6.92.428 13.84.65 20.76.844 26.287 1.592 52.578 1.752 78.88.015 2.303.038 4.605.067 6.908.237 19.768-1.402 39.599-8.148 58.336l-1.04 2.991c-3.052 8.548-6.724 16.624-11.21 24.509l-1.93 3.406c-7.044 11.883-15.577 22.575-25.07 32.594l-2.516 2.676c-21.397 22.117-48.783 37.248-77.734 47.137l-2.945 1.02c-7.525 2.449-15.164 4.214-22.885 5.921l-3.577.792c-13.211 2.9-26.473 5.536-39.743 8.148-3.525.694-7.048 1.393-10.572 2.09-6.653 1.318-13.307 2.632-19.96 3.945a66836.516 66836.516 0 0 0-35.665 7.05c-4.142.82-8.285 1.638-12.429 2.455-3.217.635-6.435 1.27-9.652 1.907l-3.69.728c-5.893 1.17-11.78 2.365-17.658 3.613l-3.35.71c-2.061.44-4.122.884-6.182 1.334l-2.76.59-2.388.52c-2.466.391-4.8.388-7.294.364-.769-7.633-1.245-15.241-1.53-22.907l-.136-3.496c-.123-3.184-.245-6.368-.365-9.552-.131-3.471-.266-6.942-.4-10.413-.236-6.077-.469-12.155-.7-18.232-.344-9.037-.692-18.074-1.04-27.111a161027.8 161027.8 0 0 1-1.75-45.616c-.576-15.057-1.152-30.114-1.73-45.171l-.11-2.839-.438-11.408c-1.37-35.667-2.737-71.334-4.102-107-1.213-31.696-2.428-63.39-3.646-95.086l-.234-6.107-.117-3.05-.584-15.197-.116-3.03a1176367.125 1176367.125 0 0 1-3.593-93.653c-.505-13.181-1.01-26.362-1.517-39.543-.652-16.982-1.303-33.964-1.952-50.946-.343-8.984-.688-17.967-1.033-26.95l-.689-17.99c-.13-3.42-.26-6.839-.393-10.258-.142-3.68-.282-7.36-.422-11.041l-.125-3.227c-.19-5.063-.324-10.11-.278-15.177 39.853-1.576 79.708-3.1 119.569-4.487 3.793-.132 7.586-.266 11.38-.402 59.906-2.14 121.816-3.26 168.625 40.56ZM266 1626c-.1 10.477.218 20.917.6 31.385l.197 5.518c.178 5.025.36 10.05.541 15.074a102372.715 102372.715 0 0 0 1.727 48.184c.446 12.396.89 24.792 1.334 37.188.816 22.803 1.634 45.605 2.454 68.407.747 20.773 1.492 41.546 2.236 62.32l.143 3.997.143 3.992a858892.078 858892.078 0 0 0 3.556 99.224 184113.825 184113.825 0 0 0 1.712 47.677c1.043 29.522 1.043 29.522 2.357 59.034 11.928-1.374 23.73-3.203 35.554-5.294 2.94-.517 5.882-1.02 8.825-1.52 23.457-4.082 46.68-10.315 61.738-30.311 12.907-19.709 12.242-40.306 11.472-63.13l-.134-4.136c-.121-3.746-.246-7.491-.37-11.237-.135-4.056-.267-8.112-.4-12.168-.258-7.93-.52-15.86-.782-23.789a81333.15 81333.15 0 0 1-.914-27.75c-.575-17.51-1.154-35.022-1.733-52.533-.496-14.998-.99-29.996-1.48-44.994a229876.34 229876.34 0 0 0-1.907-57.936l-.092-2.779-.634-19.304c-.257-7.852-.516-15.705-.777-23.557-.133-4-.266-8-.396-12-.12-3.673-.24-7.345-.364-11.018-.065-1.934-.127-3.868-.189-5.802-.922-32.856-.922-32.856-17.16-60.676-12.641-11.57-28.792-15.463-45.507-15.379l-3.347.004c-19.491.207-38.97 1.898-58.403 3.309ZM1135.258 1547.227c14.48 14.644 25.183 32.316 30.554 52.21l.591 2.163c3.958 15.78 4.001 31.883 4.23 48.05.055 3.832.125 7.662.197 11.493l.12 7.29.062 3.478.041 3.18.043 2.808C1171 1680 1171 1680 1170 1681a269.06 269.06 0 0 1-9.043.573l-2.878.148c-3.16.161-6.32.316-9.481.47l-6.583.332c-4.613.233-9.226.462-13.838.689-5.895.29-11.79.586-17.684.884-4.539.23-9.078.456-13.617.682-2.172.108-4.343.217-6.515.327-3.051.153-6.102.303-9.154.452l-2.691.137c-5.843.28-11.667.356-17.516.306-.01-.66-.018-1.322-.027-2.003-.086-6.197-.185-12.394-.29-18.59-.038-2.33-.073-4.66-.105-6.989.122-32.27.122-32.27-15.578-59.418-8.78-7.566-19.585-12.199-31-14l-2.098-.336c-20.717-2.782-42.912.581-60.402 12.402-11.788 9.118-16.957 21.588-19.5 35.934-.377 4.635-.342 9.23-.267 13.877.012 1.446.024 2.891.034 4.337.049 5.262.14 10.524.233 15.786l.054 3.175c.305 17.7.683 35.4 1.075 53.1.168 7.553.331 15.106.495 22.66.291 13.498.587 26.996.885 40.494.287 13.018.57 26.036.852 39.055.358 16.567.718 33.135 1.08 49.702.115 5.233.229 10.466.342 15.7l.42 19.182c.073 3.246.144 6.492.214 9.738.149 6.927.312 13.852.496 20.778.06 2.343.114 4.687.165 7.03.08 3.608.176 7.214.276 10.82l.06 3.247c.443 14.229 3.645 27.88 13.586 38.506 12.945 11.732 29.827 13.457 46.488 12.95 19.858-1.078 40.854-8.192 54.512-23.137 11.01-14.353 13.483-30.335 12.977-48.031l-.076-3.683c-.069-3.258-.146-6.515-.227-9.772-.132-5.447-.234-10.893-.34-16.34l-.083-4.124c-.271-13.455-.345-26.906-.313-40.362l.005-2.938c.012-5.25.03-10.5.057-15.75l-3.29.38a1003.984 1003.984 0 0 1-30.845 3.053c-2.327.194-4.654.396-6.98.598-7.979.677-15.869 1.186-23.885.969-1.107-5.436-1.22-10.761-1.316-16.285l-.063-3.062c-.044-2.149-.085-4.298-.124-6.448-.058-3.177-.123-6.354-.19-9.531-.233-11.67-.333-23.335-.318-35.008l.002-4.009L998 1770a511167.956 511167.956 0 0 1 74.908-5.004 136986.561 136986.561 0 0 1 31.707-2.118c9.461-.633 18.923-1.26 28.385-1.878l2.182-.142c4.433-.29 8.867-.576 13.3-.858 1.396-.089 2.79-.179 4.185-.27 1.932-.125 3.865-.247 5.797-.369l3.322-.212c3.41-.158 6.802-.174 10.214-.149 1.064 26.33 1.479 52.676 1.93 79.022.087 5.073.177 10.145.27 15.218a8200.233 8200.233 0 0 1 .845 55.396c.084 7.033.147 14.067.182 21.1.012 2.144.03 4.288.053 6.431.173 16.832-.744 33.434-6.405 49.458l-.907 2.627c-7.167 19.978-19.09 36.79-33.968 51.748l-1.526 1.539c-13.038 12.966-28.2 23.013-44.474 31.461l-1.917 1.014c-50.065 26.187-116.972 34.247-171.322 18.33-28.696-9.002-55.004-27.895-69.761-54.344l-1.887-3.25c-15.237-28.03-14.092-60.397-14.82-91.337-.084-3.513-.17-7.025-.256-10.538-.168-6.86-.332-13.72-.495-20.58l-.402-16.795c-.384-15.973-.766-31.947-1.145-47.92l-.061-2.6-.062-2.602c-.328-13.848-.662-27.696-.999-41.544-.348-14.318-.691-28.636-1.03-42.955-.19-7.998-.381-15.996-.577-23.994-1.396-57.11-1.396-57.11-1.53-82.063-.01-1.883-.027-3.765-.048-5.648-.168-15.907 1.12-31.769 6.5-46.861l.914-2.636c12.802-35.778 40.302-62.669 74.273-78.99 72.074-33.024 172.932-26.216 231.883 29.54ZM3277 1498c17.648-.062 35.288.098 52.934.37a40434.352 40434.352 0 0 1 28.164.429c6.704.104 13.408.205 20.113.304 5.85.086 11.701.175 17.552.265 3.452.053 6.905.105 10.357.156 13.973.206 27.945.464 41.914.871 2.004.058 4.008.112 6.013.167 42.757 1.32 85.522 11.619 118.953 39.438l1.6 1.324c24.798 20.805 37.92 49.956 41.166 81.743.695 8.7.488 17.418.32 26.135-.089 4.718-.147 9.436-.206 14.154-.06 4.615-.13 9.23-.201 13.845-.036 2.297-.069 4.594-.1 6.89-.463 32.989-.463 32.989-4.829 48.659-.215.79-.43 1.58-.65 2.395-1.982 6.986-4.732 13.42-8.1 19.855l-1.434 2.887c-3.457 6.717-7.654 12.393-12.566 18.113l-2.02 2.46c-12.262 14.425-28.592 24.399-45.98 31.54 2.175 8.601 4.927 16.98 7.782 25.374.86 2.525 1.715 5.053 2.57 7.58 1.269 3.755 2.54 7.508 3.812 11.262 3.556 10.492 7.097 20.99 10.637 31.487l1.17 3.47c10.884 32.278 21.67 64.59 32.448 96.903 1.911 5.73 3.824 11.459 5.738 17.188 2.357 7.055 4.712 14.112 7.064 21.17 1.216 3.648 2.433 7.297 3.653 10.945 1.128 3.376 2.254 6.752 3.377 10.13.601 1.805 1.205 3.609 1.81 5.413 1.878 5.656 3.597 11.27 4.939 17.078-12.725-.652-25.353-1.892-38.02-3.25l-6.232-.661c-4.317-.458-8.634-.92-12.951-1.382-5.537-.593-11.074-1.18-16.611-1.765-4.274-.452-8.546-.908-12.82-1.364-2.043-.218-4.086-.435-6.13-.65-2.84-.301-5.68-.606-8.52-.912l-2.555-.268c-3.2-.349-6.097-.727-9.161-1.748-.957-2.023-.957-2.023-1.813-4.805l-1.04-3.302-1.147-3.768c-.42-1.347-.843-2.694-1.267-4.041-.724-2.301-1.446-4.603-2.165-6.905-3.428-10.975-6.984-21.908-10.518-32.848-2.09-6.467-4.172-12.936-6.253-19.405l-.625-1.942c-3.89-12.093-7.755-24.193-11.61-36.296-7.123-22.368-14.328-44.71-21.542-67.048-.793-2.454-1.584-4.907-2.375-7.36a4731.938 4731.938 0 0 0-5.757-17.747 7237.92 7237.92 0 0 1-2.813-8.633c-.45-1.382-.902-2.763-1.356-4.143-.628-1.911-1.25-3.824-1.872-5.737l-1.083-3.31C3438 1826 3438 1826 3438 1823l-3.234-.168a34556.96 34556.96 0 0 1-17.324-.902 5467.57 5467.57 0 0 1-15.02-.798c-1.61-.088-3.219-.174-4.828-.26-2.24-.12-4.48-.247-6.719-.376l-3.883-.217C3384 1820 3384 1820 3382 1819l.006 2.158c.13 47.04-.186 94.061-.84 141.096-.095 6.864-.183 13.728-.269 20.593-.085 6.743-.173 13.486-.265 20.228-.054 3.973-.107 7.946-.156 11.92-.046 3.67-.096 7.34-.15 11.011-.028 1.984-.051 3.967-.075 5.951l-.055 3.548-.042 3.089C3380 2041 3380 2041 3379 2043c-10.884.398-21.702-.778-32.531-1.715l-6.254-.53c-4.347-.37-8.694-.743-13.041-1.118-5.576-.481-11.153-.954-16.73-1.426-4.294-.363-8.588-.73-12.883-1.099-2.057-.176-4.114-.35-6.172-.525-2.865-.243-5.73-.49-8.594-.74l-2.579-.215c-3.237-.285-6.12-.6-9.216-1.632-.239-46.98.384-93.953.936-140.929.139-11.814.274-23.628.41-35.442.243-21.12.488-42.24.735-63.36.239-20.353.474-40.706.707-61.059a397446.358 397446.358 0 0 1 .898-77.745c.095-8.176.189-16.353.282-24.53 1.087-94.743 1.087-94.743 2.032-132.935Zm109 80c-1.212 7.69-1.215 15.366-1.297 23.137l-.06 4.584c-.053 4.13-.101 8.26-.148 12.39-.05 4.322-.106 8.645-.16 12.968-.103 8.177-.201 16.354-.298 24.531-.11 9.314-.225 18.627-.34 27.94-.239 19.15-.47 38.3-.697 57.45 7.379.434 14.758.86 22.137 1.282 2.503.144 5.006.289 7.51.436 41.013 3.656 41.013 3.656 77.947-11.55 11.298-10.18 14.728-22.02 15.63-36.862.133-3.998.21-7.994.26-11.994l.073-4.424c.05-3.07.093-6.138.131-9.207.05-3.897.116-7.793.189-11.689.054-3.038.098-6.077.138-9.116.021-1.436.045-2.87.072-4.306.3-16.267-.763-31.653-11.774-44.445-4.631-4.775-9.371-8.178-15.313-11.125l-2.207-1.14c-11.413-5.512-23.839-6.838-36.336-7.387l-2.743-.126c-10.671-.465-21.348-.691-32.026-.91l-6.073-.13c-4.871-.105-9.743-.207-14.615-.307ZM3806 1508c24.34-.154 48.647.26 72.978.869 3.702.092 7.403.18 11.105.267 20.977.497 41.948 1.075 62.917 1.864 15.493 87.671 30.597 175.41 90.054 531.526l1.338 8.166c1.672 10.204 3.341 20.408 5.006 30.613l1.5 9.18c.68 4.158 1.357 8.315 2.034 12.473l.597 3.64c.993 6.126 1.85 12.228 2.471 18.402-11.582-.575-22.916-2.178-34.371-3.906l-5.809-.863c-5.056-.751-10.112-1.509-15.167-2.268-5.146-.771-10.293-1.537-15.44-2.303-5.788-.862-11.575-1.724-17.362-2.59l-2.664-.4a18236.84 18236.84 0 0 1-7.099-1.063l-2.084-.326c-1.965-.275-3.943-.445-5.92-.612-3.084-.669-3.084-.669-4.217-2.382-.962-2.537-1.428-4.87-1.829-7.556l-.493-3.233-.516-3.531-.563-3.731a3801.06 3801.06 0 0 1-1.505-10.122c-.523-3.534-1.053-7.066-1.582-10.6-.887-5.933-1.77-11.867-2.648-17.801a12365.08 12365.08 0 0 0-3.064-20.569c-.988-6.599-1.972-13.198-2.953-19.798l-1.256-8.42c-.587-3.92-1.166-7.842-1.746-11.764l-.528-3.525-.476-3.241-.417-2.809c-.287-2.553-.344-5.02-.291-7.587l-2.97-.14c-11.837-.602-23.574-1.792-35.35-3.11l-5.998-.661c-4.153-.458-8.306-.919-12.46-1.382-5.31-.592-10.622-1.18-15.933-1.765-5.1-.563-10.198-1.127-15.297-1.692l-2.919-.323c-2.731-.302-5.463-.607-8.195-.911l-2.42-.268A380.55 380.55 0 0 1 3811 1962l-.355 3.77c-.638 5.71-1.783 11.281-2.962 16.9l-.71 3.433a7151.29 7151.29 0 0 1-2.32 11.15 19798.072 19798.072 0 0 1-5.414 26.059c-1.447 6.948-2.89 13.896-4.332 20.845A63534.776 63534.776 0 0 1 3786 2087c-6.434.111-12.604-.28-18.986-1.07l-2.89-.345c-3.125-.374-6.247-.756-9.37-1.14l-6.539-.792c-4.552-.553-9.103-1.11-13.654-1.67a6337.778 6337.778 0 0 0-17.53-2.125c-4.494-.541-8.986-1.09-13.478-1.642-2.155-.264-4.311-.524-6.467-.782-3.003-.36-6.005-.731-9.006-1.105l-2.712-.319c-6.14-.782-6.14-.782-8.368-3.01.476-3.113 1.078-6.067 1.807-9.123l.663-2.903c.741-3.234 1.499-6.463 2.257-9.693a6556.364 6556.364 0 0 1 5.516-23.842 9152.363 9152.363 0 0 0 4.616-19.944c2.573-11.16 5.154-22.32 7.74-33.478 3.896-16.815 7.768-33.635 11.628-50.458l.883-3.85 4.388-19.132c1.765-7.698 3.532-15.396 5.3-23.093a64499.022 64499.022 0 0 0 31.59-138.392l4.736-20.832a764074.897 764074.897 0 0 0 45.403-199.822l.795-3.504A310.51 310.51 0 0 1 3806 1508Zm69 132-.403 2a884355.671 884355.671 0 0 1-14.965 74.339l-5.98 29.704-.5 2.481a34658.65 34658.65 0 0 1-14.386 71.117c-1.759 8.661-3.519 17.321-5.288 25.98-.696 3.41-1.39 6.82-2.081 10.23-.314 1.542-.63 3.085-.946 4.627-.423 2.06-.842 4.122-1.259 6.183l-.704 3.448c-.599 3.06-.599 3.06-.488 6.891 2.894 1.447 5.656 1.45 8.877 1.756l2.144.207c2.348.226 4.697.446 7.045.666l4.904.466c3.434.327 6.868.65 10.303.971 4.382.41 8.764.828 13.146 1.248 3.381.323 6.762.642 10.144.96 1.614.152 3.228.305 4.842.46 7.876.753 15.672 1.481 23.595 1.266-.628-9.682-1.985-19.206-3.465-28.785l-.76-4.984c-.684-4.493-1.374-8.985-2.065-13.477-.732-4.765-1.46-9.53-2.187-14.296-1.386-9.072-2.776-18.144-4.168-27.215-1.552-10.118-3.1-20.238-4.647-30.357a57668.83 57668.83 0 0 0-7.959-51.935 10858.484 10858.484 0 0 1-5.037-33.122c-.649-4.308-1.302-8.616-1.954-12.924-.487-3.232-.968-6.465-1.447-9.698l-.856-5.64-.364-2.508c-.574-3.728-1.301-6.75-3.091-10.059ZM2327 1492h147c13.979 58.246 13.979 58.246 19.755 83.224l1.317 5.689.674 2.913c1.216 5.254 2.435 10.507 3.654 15.76l5.512 23.778a78213.3 78213.3 0 0 0 9.91 42.702 124981.135 124981.135 0 0 1 43.057 186.014 436885.158 436885.158 0 0 1 3.843 16.654 56347.266 56347.266 0 0 1 8.492 36.849c2.26 9.811 4.527 19.621 6.802 29.43 1.611 6.945 3.219 13.89 4.824 20.837.958 4.145 1.918 8.29 2.883 12.433.895 3.843 1.784 7.687 2.67 11.532.326 1.41.654 2.82.984 4.228.45 1.927.893 3.855 1.336 5.784l.758 3.266c.494 2.715.634 5.156.529 7.907-37.022.149-73.984-.28-111-1l-23-111c-27.396-.839-27.396-.839-54.794-1.13-2.151.005-4.303 0-6.454-.007-17.931.016-35.815.665-53.752 1.137l-23 111c-64.48 1.151-64.48 1.151-86 1.063-2.298-.006-4.596-.01-6.895-.014-5.368-.01-10.737-.028-16.105-.049.64-7.138 1.986-13.932 3.61-20.907l.811-3.538c.736-3.204 1.476-6.407 2.218-9.609.792-3.423 1.578-6.848 2.365-10.272 1.525-6.63 3.055-13.26 4.587-19.89 1.787-7.73 3.568-15.462 5.348-23.195a69641.41 69641.41 0 0 1 11.653-50.495l3.826-16.561c5.77-24.986 11.56-49.968 17.358-74.947 2.757-11.883 5.512-23.767 8.267-35.65a157942.453 157942.453 0 0 1 42.337-182.224c4.79-20.59 9.723-41.146 14.62-61.712Zm72 112-.469 2.273a1551417.836 1551417.836 0 0 1-24.514 118.765 36939.135 36939.135 0 0 1-10.515 50.804l-.802 3.86a342536.557 342536.557 0 0 0-4.88 23.447l-.569 2.72c-.87 3.537-.87 3.537-1.251 7.131h87c-4.548-22.47-4.548-22.47-9.11-44.938l-.466-2.286a17608.43 17608.43 0 0 0-11.256-54.745l-.495-2.394c-1.989-9.61-3.98-19.218-5.97-28.827-1.722-8.303-3.44-16.607-5.16-24.91-3.513-16.967-7.027-33.934-10.543-50.9h-1ZM1620 1497c-.668 7.29-2.004 14.305-3.547 21.456l-.792 3.724c-.57 2.68-1.142 5.358-1.717 8.037-.929 4.331-1.852 8.664-2.775 12.996-1.332 6.256-2.668 12.51-4.005 18.764a34360 34360 0 0 0-6.894 32.333 242278.85 242278.85 0 0 0-4.875 22.906A30236.396 30236.396 0 0 0 1574.75 1715l-.792 3.78a75424.288 75424.288 0 0 0-46.403 223.283l-.462 2.24a125343.203 125343.203 0 0 0-14.705 71.352 138674.615 138674.615 0 0 1-1.914 9.296l-.548 2.66-.472 2.292c-.443 2.045-.935 4.07-1.454 6.097-13.412 1.683-26.846 2.931-40.313 4.094l-6.675.582c-4.642.405-9.285.808-13.928 1.21-5.874.509-11.749 1.02-17.623 1.533a46612.382 46612.382 0 0 1-20.262 1.764A5686.148 5686.148 0 0 1 1363 2049c-1.818-4.381-2.992-8.774-4.05-13.388l-.594-2.553c-.657-2.818-1.307-5.638-1.958-8.457l-1.406-6.05c-1.01-4.348-2.018-8.696-3.024-13.045a24260.76 24260.76 0 0 0-4.858-20.944c-1.69-7.278-3.38-14.557-5.068-21.836-3.64-15.698-7.29-31.393-10.952-47.086l-.72-3.086-2.88-12.344c-23.058-98.837-45.93-197.717-78.558-339.154a256582.28 256582.28 0 0 0-3.929-17.04 8116.987 8116.987 0 0 0-5.74-24.785 4097.96 4097.96 0 0 0-1.576-6.747l-.682-2.937-.593-2.537C1236 1505 1236 1505 1236 1503c14.718-1.06 29.436-1.326 44.188-1.563 1.245-.02 2.491-.042 3.775-.064 21.348-.361 42.687-.47 64.037-.373 5.255 23.51 10.12 47.092 14.9 70.703 2.294 11.335 4.6 22.668 6.909 34l.744 3.653c6.172 30.29 12.463 60.557 18.754 90.823 2.52 12.125 5.039 24.25 7.556 36.376l.446 2.146c8.001 38.543 15.899 77.107 23.786 115.673l.76 3.715 3.482 17.038c1.01 4.946 2.024 9.892 3.04 14.837.438 2.131.873 4.263 1.306 6.395.685 3.366 1.375 6.731 2.065 10.096l.64 3.16.595 2.891c.26 1.269.26 1.269.523 2.563.317 1.924.317 1.924 1.494 2.931l.364-2.064c14.89-84.542 29.869-169.069 45.067-253.556l1.505-8.367c3.754-20.882 7.515-41.763 11.287-62.641 1.594-8.818 3.185-17.637 4.774-26.456 1.485-8.246 2.973-16.49 4.465-24.735.782-4.329 1.564-8.657 2.342-12.986.718-3.994 1.44-7.987 2.165-11.98.265-1.463.529-2.927.79-4.392.357-1.99.72-3.978 1.081-5.967l.61-3.375c.55-2.481.55-2.481 1.55-3.481 1.647-.123 3.3-.178 4.951-.205l3.236-.06 3.567-.051 3.71-.064c3.339-.055 6.679-.105 10.019-.152 2.071-.03 4.143-.062 6.214-.095 25.768-.401 51.532-.492 77.303-.373ZM2593 1492c27.755-.153 55.498.103 83.25.5l2.531.036c10.406.15 20.813.304 31.219.464 18.33 42.7 36.529 85.454 54.584 128.271a84673.3 84673.3 0 0 0 15.1 35.788c4.076 9.66 8.17 19.31 12.316 28.941a2507.38 2507.38 0 0 0 20.632-45.4A6037.644 6037.644 0 0 1 2829 1604a8850.968 8850.968 0 0 0 21.759-48.694c4.21-9.492 8.428-18.98 12.646-28.469l6.392-14.38a2294087.81 2294087.81 0 0 1 3.179-7.153L2878 1494c9.53-.024 19.062-.041 28.593-.052 4.43-.005 8.86-.012 13.29-.023 24.391-.063 48.74.267 73.117 1.075-2.338 7.842-5.772 14.915-9.469 22.195l-1.926 3.832a4328.94 4328.94 0 0 1-5.077 10.064 9858.52 9858.52 0 0 0-9.988 19.823 1295.821 1295.821 0 0 0-13.44 27.522c-6.127 12.89-12.594 25.615-19.006 38.366-1.51 3.002-3.018 6.004-4.524 9.008-1.11 2.213-2.222 4.425-3.337 6.636-3.58 7.137-7.041 14.325-10.473 21.534-4.978 10.447-10.098 20.816-15.291 31.157a8852.136 8852.136 0 0 0-4.473 8.922c-3.695 7.377-7.395 14.752-11.094 22.128a33273.12 33273.12 0 0 0-9.434 18.821c-1.444 2.883-2.891 5.763-4.338 8.644a1609.735 1609.735 0 0 0-15.338 31.411l-1.283 2.703-1.245 2.689c-1.264 2.545-1.264 2.545-2.668 4.7-5.428 8.746-4.346 18.875-4.347 28.808a2785.802 2785.802 0 0 0-.16 23.667c-.025 6.028-.078 12.055-.128 18.082-.09 11.404-.156 22.807-.212 34.21a16703 16703 0 0 1-.254 38.96c-.196 26.706-.357 53.412-.495 80.118-10.963-.372-21.927-.746-32.89-1.122-5.093-.174-10.187-.348-15.28-.52a35771.813 35771.813 0 0 1-20.392-.697A2975.954 2975.954 0 0 1 2736 2005l.053-3.249c.425-26.275.735-52.55.931-78.828.098-12.709.23-25.415.45-38.123.19-11.096.312-22.19.354-33.288.024-5.86.08-11.714.22-17.571.706-30.519-3.071-52.689-18.777-79.104-3.093-5.231-5.637-10.69-8.169-16.212-.846-1.782-1.695-3.564-2.546-5.344l-1.245-2.613c-7.667-16.088-15.426-32.132-23.207-48.166-4.366-8.995-8.72-17.996-13.064-27.002a19906.798 19906.798 0 0 0-34.862-71.85c-3.823-7.842-7.643-15.685-11.454-23.533l-1.055-2.172c-1.727-3.556-3.453-7.113-5.177-10.671-3.443-7.1-6.899-14.192-10.383-21.272-1.78-3.618-3.556-7.238-5.332-10.858-.861-1.753-1.725-3.504-2.59-5.255-1.202-2.429-2.396-4.862-3.588-7.295l-1.096-2.201C2593 1495.34 2593 1495.34 2593 1492ZM710 1515c.718 7.114 1.186 14.182 1.357 21.329l.08 2.979c.088 3.278.17 6.556.253 9.834l.188 7.142c.136 5.168.27 10.336.402 15.505.196 7.686.396 15.372.597 23.058.36 13.732.715 27.465 1.068 41.198a159273.543 159273.543 0 0 0 1.248 48.222c.79 30.408 1.575 60.816 2.358 91.224.695 26.976 1.394 53.951 2.095 80.927a520603.732 520603.732 0 0 1 2.61 100.72l.063 2.417c.31 12.005.621 24.01.934 36.015.355 13.671.709 27.342 1.06 41.013.178 6.968.357 13.936.54 20.904.167 6.394.332 12.788.494 19.182.059 2.298.118 4.596.18 6.894.4 15.15.548 30.283.473 45.437l-4.638.746-2.61.42c-11.37 1.83-22.74 3.657-34.11 5.484a65511.22 65511.22 0 0 0-19.203 3.087c-6.172.993-12.345 1.985-18.518 2.976l-7.079 1.139c-3.294.53-6.59 1.06-9.884 1.587l-2.982.482-2.711.434-2.363.38C620 2146 620 2146 618 2146c-1.623-57.135-3.245-114.27-4.862-171.406l-.073-2.565a3185033.468 3185033.468 0 0 1-2.405-85.007c-.823-29.072-1.648-58.143-2.474-87.215a512976.867 512976.867 0 0 1-2.899-102.37l-.071-2.522a159599.5 159599.5 0 0 0-1.138-40.075c-.384-13.455-.765-26.909-1.143-40.363-.224-7.978-.45-15.955-.68-23.933a20969.3 20969.3 0 0 1-.506-17.949c-.067-2.401-.136-4.803-.206-7.204-.46-15.801-.629-31.583-.543-47.391 1.588-.164 3.177-.326 4.765-.488l2.68-.274c3.29-.307 6.569-.442 9.871-.535l2.001-.06c2.154-.063 4.307-.12 6.46-.178l4.606-.13c3.217-.09 6.433-.179 9.65-.265 4.036-.108 8.072-.223 12.107-.34 18.96-.544 37.891-.87 56.86-.73ZM2024 1493h110a836761.806 836761.806 0 0 1 .427 119.513l.01 2.576c.04 11.817.083 23.635.127 35.452.15 40.995.287 81.99.399 122.986.02 7.41.04 14.82.064 22.231.046 14.828.088 29.656.11 44.485.01 6 .022 12.002.043 18.003.018 5.47.028 10.941.03 16.412.002 1.961.007 3.922.017 5.883.152 33.213-8.072 61.434-31.391 85.654A145.567 145.567 0 0 1 2089 1979l-1.622 1.225c-38.116 28.227-88.019 35.992-134.316 35.963h-2.007c-43.792-.057-43.792-.057-54.055-5.188 1.315-8.945 2.853-17.826 4.566-26.703l.725-3.771c.627-3.262 1.257-6.523 1.887-9.783.517-2.68 1.029-5.359 1.54-8.039.613-3.199 1.231-6.397 1.848-9.595l.695-3.639.647-3.33.568-2.943C1910 1941 1910 1941 1911 1940c2.843.096 5.663.25 8.5.438 29.18 1.652 64.217 3.527 88.824-15.208 11.813-10.687 15.384-25.978 16.676-41.23.124-3.312.122-6.619.105-9.933l-.002-2.864c-.004-3.102-.015-6.204-.027-9.306l-.012-6.603c-.014-6.765-.038-13.53-.064-20.294l-.021-6.038c-.047-12.724-.112-25.449-.18-38.173a4492002.658 4492002.658 0 0 0-.119-23.197l-.018-3.454-.053-10.453c-.644-125.546-.644-125.546-.675-176.048l-.002-2.209c-.017-27.476.034-54.952.068-82.428ZM1796.866 1494.97a771575.26 771575.26 0 0 0 16.134.03 43212.75 43212.75 0 0 1 1.684 180.315l.242 32.879c.145 19.55.289 39.099.431 58.648.138 18.857.276 37.715.416 56.572l.027 3.554.026 3.55a909928.828 909928.828 0 0 1 .852 115.698l.103 14.076c.136 18.236.267 36.471.219 54.708-4.77.831-9.477 1.297-14.306 1.573l-2.462.148c-2.677.16-5.355.315-8.033.47l-5.636.332c-3.942.232-7.883.461-11.825.689-5.005.289-10.01.585-15.014.884-3.885.23-7.771.457-11.657.682a3205.5 3205.5 0 0 0-5.526.327c-2.604.155-5.208.304-7.812.452l-2.223.137c-5.447.3-10.881.328-16.335.317l-2.385-.002c-1.929-.002-3.857-.005-5.786-.009a4829.708 4829.708 0 0 1-1.454-85.368c-.046-5.398-.096-10.796-.145-16.194-.096-10.506-.188-21.012-.279-31.517-.106-12.288-.216-24.575-.326-36.862-.196-21.947-.389-43.894-.58-65.841a298120.22 298120.22 0 0 0-.597-67.571l-.036-3.957a603321.208 603321.208 0 0 1-.873-98.442c-.092-10.41-.184-20.821-.274-31.232-.046-5.293-.092-10.585-.14-15.878-.216-24.046-.351-48.09-.296-72.138a61138.563 61138.563 0 0 1 10.82-.375c27.671-.937 55.363-.709 83.046-.656Z"/></svg>